<mxfile host="app.diagrams.net" modified="2021-10-01T07:47:25.120Z" agent="5.0 (Windows NT 10.0; Win64; x64) AppleWebKit/537.36 (KHTML, like Gecko) Chrome/94.0.4606.61 Safari/537.36" etag="RizHgmb5tgPriTGQsLwX" version="15.4.0" type="github">
  <diagram id="R2lEEEUBdFMjLlhIrx00" name="Page-1">
    <mxGraphModel dx="1038" dy="588" grid="1" gridSize="10" guides="1" tooltips="1" connect="1" arrows="1" fold="1" page="1" pageScale="1" pageWidth="850" pageHeight="1100" math="0" shadow="0" extFonts="Permanent Marker^https://fonts.googleapis.com/css?family=Permanent+Marker">
      <root>
        <mxCell id="0" />
        <mxCell id="1" parent="0" />
        <mxCell id="rSL1p0TWv5nwJX9Y8UWE-18" style="edgeStyle=orthogonalEdgeStyle;rounded=1;orthogonalLoop=1;jettySize=auto;html=1;entryX=0;entryY=0.5;entryDx=0;entryDy=0;endArrow=none;endFill=0;strokeWidth=2;" parent="1" source="rSL1p0TWv5nwJX9Y8UWE-1" target="rSL1p0TWv5nwJX9Y8UWE-17" edge="1">
          <mxGeometry relative="1" as="geometry">
            <Array as="points">
              <mxPoint x="350" y="260" />
              <mxPoint x="350" y="350" />
            </Array>
          </mxGeometry>
        </mxCell>
        <mxCell id="rSL1p0TWv5nwJX9Y8UWE-1" value="旅客" style="rounded=0;whiteSpace=wrap;html=1;strokeWidth=2;" parent="1" vertex="1">
          <mxGeometry x="180" y="230" width="120" height="60" as="geometry" />
        </mxCell>
        <mxCell id="rSL1p0TWv5nwJX9Y8UWE-90" style="edgeStyle=orthogonalEdgeStyle;rounded=1;orthogonalLoop=1;jettySize=auto;html=1;entryX=0.5;entryY=0;entryDx=0;entryDy=0;endArrow=none;endFill=0;strokeWidth=2;" parent="1" source="rSL1p0TWv5nwJX9Y8UWE-2" target="rSL1p0TWv5nwJX9Y8UWE-56" edge="1">
          <mxGeometry relative="1" as="geometry" />
        </mxCell>
        <mxCell id="rSL1p0TWv5nwJX9Y8UWE-2" value="旅行社" style="rounded=0;whiteSpace=wrap;html=1;strokeWidth=2;" parent="1" vertex="1">
          <mxGeometry x="560" y="230" width="120" height="60" as="geometry" />
        </mxCell>
        <mxCell id="xx_I0FoMBbV-bJ_i2G7W-16" style="edgeStyle=orthogonalEdgeStyle;rounded=1;orthogonalLoop=1;jettySize=auto;html=1;entryX=0.5;entryY=0;entryDx=0;entryDy=0;strokeWidth=2;endFill=0;endArrow=none;" edge="1" parent="1" source="rSL1p0TWv5nwJX9Y8UWE-3" target="xx_I0FoMBbV-bJ_i2G7W-15">
          <mxGeometry relative="1" as="geometry" />
        </mxCell>
        <mxCell id="xx_I0FoMBbV-bJ_i2G7W-21" style="edgeStyle=orthogonalEdgeStyle;rounded=1;orthogonalLoop=1;jettySize=auto;html=1;entryX=0;entryY=0.5;entryDx=0;entryDy=0;strokeWidth=2;endFill=0;endArrow=none;" edge="1" parent="1" source="rSL1p0TWv5nwJX9Y8UWE-3" target="xx_I0FoMBbV-bJ_i2G7W-19">
          <mxGeometry relative="1" as="geometry" />
        </mxCell>
        <mxCell id="rSL1p0TWv5nwJX9Y8UWE-3" value="航班" style="rounded=0;whiteSpace=wrap;html=1;strokeWidth=2;" parent="1" vertex="1">
          <mxGeometry x="370" y="530" width="120" height="60" as="geometry" />
        </mxCell>
        <mxCell id="rSL1p0TWv5nwJX9Y8UWE-11" style="edgeStyle=orthogonalEdgeStyle;rounded=1;orthogonalLoop=1;jettySize=auto;html=1;entryX=0.5;entryY=0;entryDx=0;entryDy=0;endArrow=none;endFill=0;strokeWidth=2;" parent="1" source="rSL1p0TWv5nwJX9Y8UWE-5" target="rSL1p0TWv5nwJX9Y8UWE-1" edge="1">
          <mxGeometry relative="1" as="geometry" />
        </mxCell>
        <mxCell id="rSL1p0TWv5nwJX9Y8UWE-5" value="性别" style="ellipse;whiteSpace=wrap;html=1;strokeWidth=2;" parent="1" vertex="1">
          <mxGeometry x="170" y="140" width="40" height="40" as="geometry" />
        </mxCell>
        <mxCell id="rSL1p0TWv5nwJX9Y8UWE-10" style="edgeStyle=orthogonalEdgeStyle;rounded=1;orthogonalLoop=1;jettySize=auto;html=1;entryX=0.5;entryY=0;entryDx=0;entryDy=0;endArrow=none;endFill=0;strokeWidth=2;" parent="1" source="rSL1p0TWv5nwJX9Y8UWE-6" target="rSL1p0TWv5nwJX9Y8UWE-1" edge="1">
          <mxGeometry relative="1" as="geometry" />
        </mxCell>
        <mxCell id="rSL1p0TWv5nwJX9Y8UWE-6" value="姓名" style="ellipse;whiteSpace=wrap;html=1;strokeWidth=2;" parent="1" vertex="1">
          <mxGeometry x="270" y="140" width="40" height="40" as="geometry" />
        </mxCell>
        <mxCell id="rSL1p0TWv5nwJX9Y8UWE-65" style="edgeStyle=orthogonalEdgeStyle;rounded=1;orthogonalLoop=1;jettySize=auto;html=1;entryX=0;entryY=0.5;entryDx=0;entryDy=0;endArrow=none;endFill=0;strokeWidth=2;" parent="1" source="rSL1p0TWv5nwJX9Y8UWE-9" target="rSL1p0TWv5nwJX9Y8UWE-1" edge="1">
          <mxGeometry relative="1" as="geometry" />
        </mxCell>
        <mxCell id="rSL1p0TWv5nwJX9Y8UWE-9" value="身份证号" style="ellipse;whiteSpace=wrap;html=1;strokeWidth=2;" parent="1" vertex="1">
          <mxGeometry x="70" y="260" width="40" height="40" as="geometry" />
        </mxCell>
        <mxCell id="rSL1p0TWv5nwJX9Y8UWE-19" style="edgeStyle=orthogonalEdgeStyle;rounded=1;orthogonalLoop=1;jettySize=auto;html=1;entryX=0;entryY=0.5;entryDx=0;entryDy=0;endArrow=none;endFill=0;strokeWidth=2;" parent="1" source="rSL1p0TWv5nwJX9Y8UWE-17" target="rSL1p0TWv5nwJX9Y8UWE-2" edge="1">
          <mxGeometry relative="1" as="geometry" />
        </mxCell>
        <mxCell id="xx_I0FoMBbV-bJ_i2G7W-4" style="edgeStyle=orthogonalEdgeStyle;rounded=1;orthogonalLoop=1;jettySize=auto;html=1;entryX=0.5;entryY=0;entryDx=0;entryDy=0;strokeWidth=2;endFill=0;endArrow=none;" edge="1" parent="1" source="rSL1p0TWv5nwJX9Y8UWE-17" target="rSL1p0TWv5nwJX9Y8UWE-3">
          <mxGeometry relative="1" as="geometry" />
        </mxCell>
        <mxCell id="rSL1p0TWv5nwJX9Y8UWE-17" value="选择旅行社、&lt;br&gt;预定机票" style="rhombus;whiteSpace=wrap;html=1;strokeWidth=2;" parent="1" vertex="1">
          <mxGeometry x="390" y="310" width="80" height="80" as="geometry" />
        </mxCell>
        <mxCell id="rSL1p0TWv5nwJX9Y8UWE-20" value="n" style="text;html=1;strokeColor=none;fillColor=none;align=center;verticalAlign=middle;whiteSpace=wrap;rounded=0;" parent="1" vertex="1">
          <mxGeometry x="345" y="310" width="40" height="20" as="geometry" />
        </mxCell>
        <mxCell id="rSL1p0TWv5nwJX9Y8UWE-29" style="edgeStyle=orthogonalEdgeStyle;rounded=1;orthogonalLoop=1;jettySize=auto;html=1;entryX=0.5;entryY=0;entryDx=0;entryDy=0;endArrow=none;endFill=0;strokeWidth=2;" parent="1" source="rSL1p0TWv5nwJX9Y8UWE-22" target="rSL1p0TWv5nwJX9Y8UWE-17" edge="1">
          <mxGeometry relative="1" as="geometry" />
        </mxCell>
        <mxCell id="rSL1p0TWv5nwJX9Y8UWE-22" value="旅行时间" style="ellipse;whiteSpace=wrap;html=1;strokeWidth=2;" parent="1" vertex="1">
          <mxGeometry x="355" y="220" width="50" height="50" as="geometry" />
        </mxCell>
        <mxCell id="rSL1p0TWv5nwJX9Y8UWE-32" style="edgeStyle=orthogonalEdgeStyle;rounded=1;orthogonalLoop=1;jettySize=auto;html=1;entryX=0.5;entryY=1;entryDx=0;entryDy=0;endArrow=none;endFill=0;strokeWidth=2;startArrow=none;" parent="1" source="rSL1p0TWv5nwJX9Y8UWE-26" target="rSL1p0TWv5nwJX9Y8UWE-17" edge="1">
          <mxGeometry relative="1" as="geometry" />
        </mxCell>
        <mxCell id="rSL1p0TWv5nwJX9Y8UWE-87" style="edgeStyle=orthogonalEdgeStyle;rounded=1;orthogonalLoop=1;jettySize=auto;html=1;entryX=0.5;entryY=1;entryDx=0;entryDy=0;endArrow=none;endFill=0;strokeWidth=2;" parent="1" source="rSL1p0TWv5nwJX9Y8UWE-24" target="rSL1p0TWv5nwJX9Y8UWE-17" edge="1">
          <mxGeometry relative="1" as="geometry" />
        </mxCell>
        <mxCell id="rSL1p0TWv5nwJX9Y8UWE-24" value="始发地" style="ellipse;whiteSpace=wrap;html=1;strokeWidth=2;" parent="1" vertex="1">
          <mxGeometry x="355" y="430" width="50" height="50" as="geometry" />
        </mxCell>
        <mxCell id="rSL1p0TWv5nwJX9Y8UWE-33" style="edgeStyle=orthogonalEdgeStyle;rounded=1;orthogonalLoop=1;jettySize=auto;html=1;entryX=0.5;entryY=1;entryDx=0;entryDy=0;endArrow=none;endFill=0;strokeWidth=2;" parent="1" source="rSL1p0TWv5nwJX9Y8UWE-26" target="rSL1p0TWv5nwJX9Y8UWE-17" edge="1">
          <mxGeometry relative="1" as="geometry" />
        </mxCell>
        <mxCell id="rSL1p0TWv5nwJX9Y8UWE-31" style="edgeStyle=orthogonalEdgeStyle;rounded=1;orthogonalLoop=1;jettySize=auto;html=1;entryX=0.5;entryY=0;entryDx=0;entryDy=0;endArrow=none;endFill=0;strokeWidth=2;" parent="1" source="rSL1p0TWv5nwJX9Y8UWE-27" target="rSL1p0TWv5nwJX9Y8UWE-17" edge="1">
          <mxGeometry relative="1" as="geometry" />
        </mxCell>
        <mxCell id="xx_I0FoMBbV-bJ_i2G7W-5" style="edgeStyle=orthogonalEdgeStyle;rounded=1;orthogonalLoop=1;jettySize=auto;html=1;strokeWidth=2;endFill=0;endArrow=none;" edge="1" parent="1" source="rSL1p0TWv5nwJX9Y8UWE-34" target="rSL1p0TWv5nwJX9Y8UWE-17">
          <mxGeometry relative="1" as="geometry">
            <Array as="points">
              <mxPoint x="380" y="385" />
              <mxPoint x="380" y="350" />
            </Array>
          </mxGeometry>
        </mxCell>
        <mxCell id="rSL1p0TWv5nwJX9Y8UWE-34" value="预定金交付情况" style="ellipse;whiteSpace=wrap;html=1;strokeWidth=2;" parent="1" vertex="1">
          <mxGeometry x="285" y="360" width="50" height="50" as="geometry" />
        </mxCell>
        <mxCell id="rSL1p0TWv5nwJX9Y8UWE-36" style="edgeStyle=orthogonalEdgeStyle;rounded=1;orthogonalLoop=1;jettySize=auto;html=1;entryX=0.5;entryY=0;entryDx=0;entryDy=0;endArrow=none;endFill=0;strokeWidth=2;startArrow=none;" parent="1" source="rSL1p0TWv5nwJX9Y8UWE-27" target="rSL1p0TWv5nwJX9Y8UWE-17" edge="1">
          <mxGeometry relative="1" as="geometry" />
        </mxCell>
        <mxCell id="xx_I0FoMBbV-bJ_i2G7W-6" style="edgeStyle=orthogonalEdgeStyle;rounded=1;orthogonalLoop=1;jettySize=auto;html=1;strokeWidth=2;endFill=0;endArrow=none;" edge="1" parent="1" source="rSL1p0TWv5nwJX9Y8UWE-35">
          <mxGeometry relative="1" as="geometry">
            <mxPoint x="470" y="350" as="targetPoint" />
          </mxGeometry>
        </mxCell>
        <mxCell id="rSL1p0TWv5nwJX9Y8UWE-35" value="机票尾款交付情况" style="ellipse;whiteSpace=wrap;html=1;strokeWidth=2;" parent="1" vertex="1">
          <mxGeometry x="520" y="370" width="50" height="50" as="geometry" />
        </mxCell>
        <mxCell id="rSL1p0TWv5nwJX9Y8UWE-27" value="航班要求" style="ellipse;whiteSpace=wrap;html=1;strokeWidth=2;" parent="1" vertex="1">
          <mxGeometry x="470" y="220" width="50" height="50" as="geometry" />
        </mxCell>
        <mxCell id="rSL1p0TWv5nwJX9Y8UWE-26" value="目的地" style="ellipse;whiteSpace=wrap;html=1;strokeWidth=2;" parent="1" vertex="1">
          <mxGeometry x="470" y="430" width="50" height="50" as="geometry" />
        </mxCell>
        <mxCell id="rSL1p0TWv5nwJX9Y8UWE-83" style="edgeStyle=orthogonalEdgeStyle;rounded=1;orthogonalLoop=1;jettySize=auto;html=1;endArrow=none;endFill=0;strokeWidth=2;" parent="1" source="rSL1p0TWv5nwJX9Y8UWE-42" edge="1">
          <mxGeometry relative="1" as="geometry">
            <mxPoint x="240" y="230" as="targetPoint" />
          </mxGeometry>
        </mxCell>
        <mxCell id="rSL1p0TWv5nwJX9Y8UWE-42" value="密码" style="ellipse;whiteSpace=wrap;html=1;strokeWidth=2;" parent="1" vertex="1">
          <mxGeometry x="220" y="140" width="40" height="40" as="geometry" />
        </mxCell>
        <mxCell id="rSL1p0TWv5nwJX9Y8UWE-46" style="edgeStyle=orthogonalEdgeStyle;rounded=1;orthogonalLoop=1;jettySize=auto;html=1;entryX=0.5;entryY=0;entryDx=0;entryDy=0;endArrow=none;endFill=0;strokeWidth=2;" parent="1" source="rSL1p0TWv5nwJX9Y8UWE-45" target="rSL1p0TWv5nwJX9Y8UWE-2" edge="1">
          <mxGeometry relative="1" as="geometry" />
        </mxCell>
        <mxCell id="rSL1p0TWv5nwJX9Y8UWE-45" value="简介" style="ellipse;whiteSpace=wrap;html=1;strokeWidth=2;" parent="1" vertex="1">
          <mxGeometry x="540" y="140" width="40" height="40" as="geometry" />
        </mxCell>
        <mxCell id="rSL1p0TWv5nwJX9Y8UWE-48" style="edgeStyle=orthogonalEdgeStyle;rounded=1;orthogonalLoop=1;jettySize=auto;html=1;endArrow=none;endFill=0;strokeWidth=2;" parent="1" source="rSL1p0TWv5nwJX9Y8UWE-47" edge="1">
          <mxGeometry relative="1" as="geometry">
            <mxPoint x="620" y="230" as="targetPoint" />
          </mxGeometry>
        </mxCell>
        <mxCell id="rSL1p0TWv5nwJX9Y8UWE-47" value="图片链接" style="ellipse;whiteSpace=wrap;html=1;strokeWidth=2;" parent="1" vertex="1">
          <mxGeometry x="600" y="140" width="40" height="40" as="geometry" />
        </mxCell>
        <mxCell id="rSL1p0TWv5nwJX9Y8UWE-50" style="edgeStyle=orthogonalEdgeStyle;rounded=1;orthogonalLoop=1;jettySize=auto;html=1;entryX=0.5;entryY=0;entryDx=0;entryDy=0;endArrow=none;endFill=0;strokeWidth=2;" parent="1" source="rSL1p0TWv5nwJX9Y8UWE-49" target="rSL1p0TWv5nwJX9Y8UWE-2" edge="1">
          <mxGeometry relative="1" as="geometry" />
        </mxCell>
        <mxCell id="rSL1p0TWv5nwJX9Y8UWE-49" value="名称" style="ellipse;whiteSpace=wrap;html=1;strokeWidth=2;" parent="1" vertex="1">
          <mxGeometry x="660" y="140" width="40" height="40" as="geometry" />
        </mxCell>
        <mxCell id="rSL1p0TWv5nwJX9Y8UWE-88" style="edgeStyle=orthogonalEdgeStyle;rounded=1;orthogonalLoop=1;jettySize=auto;html=1;entryX=0.5;entryY=1;entryDx=0;entryDy=0;endArrow=none;endFill=0;strokeWidth=2;" parent="1" source="rSL1p0TWv5nwJX9Y8UWE-51" target="rSL1p0TWv5nwJX9Y8UWE-2" edge="1">
          <mxGeometry relative="1" as="geometry" />
        </mxCell>
        <mxCell id="rSL1p0TWv5nwJX9Y8UWE-51" value="账号ID" style="ellipse;whiteSpace=wrap;html=1;strokeWidth=2;" parent="1" vertex="1">
          <mxGeometry x="580" y="340" width="40" height="40" as="geometry" />
        </mxCell>
        <mxCell id="rSL1p0TWv5nwJX9Y8UWE-64" style="edgeStyle=orthogonalEdgeStyle;rounded=1;orthogonalLoop=1;jettySize=auto;html=1;endArrow=none;endFill=0;strokeWidth=2;" parent="1" source="rSL1p0TWv5nwJX9Y8UWE-53" edge="1">
          <mxGeometry relative="1" as="geometry">
            <mxPoint x="180" y="260" as="targetPoint" />
          </mxGeometry>
        </mxCell>
        <mxCell id="rSL1p0TWv5nwJX9Y8UWE-53" value="账号ID" style="ellipse;whiteSpace=wrap;html=1;strokeWidth=2;" parent="1" vertex="1">
          <mxGeometry x="70" y="220" width="40" height="40" as="geometry" />
        </mxCell>
        <mxCell id="rSL1p0TWv5nwJX9Y8UWE-56" value="密码" style="ellipse;whiteSpace=wrap;html=1;strokeWidth=2;" parent="1" vertex="1">
          <mxGeometry x="630" y="340" width="40" height="40" as="geometry" />
        </mxCell>
        <mxCell id="xx_I0FoMBbV-bJ_i2G7W-12" style="edgeStyle=orthogonalEdgeStyle;rounded=1;orthogonalLoop=1;jettySize=auto;html=1;entryX=0.5;entryY=1;entryDx=0;entryDy=0;strokeWidth=2;endFill=0;endArrow=none;" edge="1" parent="1" source="rSL1p0TWv5nwJX9Y8UWE-62" target="xx_I0FoMBbV-bJ_i2G7W-8">
          <mxGeometry relative="1" as="geometry" />
        </mxCell>
        <mxCell id="rSL1p0TWv5nwJX9Y8UWE-62" value="始发地" style="ellipse;whiteSpace=wrap;html=1;strokeWidth=2;" parent="1" vertex="1">
          <mxGeometry x="110" y="640" width="40" height="40" as="geometry" />
        </mxCell>
        <mxCell id="rSL1p0TWv5nwJX9Y8UWE-70" value="m" style="text;html=1;strokeColor=none;fillColor=none;align=center;verticalAlign=middle;whiteSpace=wrap;rounded=0;" parent="1" vertex="1">
          <mxGeometry x="470" y="320" width="40" height="20" as="geometry" />
        </mxCell>
        <mxCell id="xx_I0FoMBbV-bJ_i2G7W-13" style="edgeStyle=orthogonalEdgeStyle;rounded=1;orthogonalLoop=1;jettySize=auto;html=1;entryX=0.5;entryY=1;entryDx=0;entryDy=0;strokeWidth=2;endFill=0;endArrow=none;" edge="1" parent="1" source="rSL1p0TWv5nwJX9Y8UWE-73" target="xx_I0FoMBbV-bJ_i2G7W-8">
          <mxGeometry relative="1" as="geometry" />
        </mxCell>
        <mxCell id="rSL1p0TWv5nwJX9Y8UWE-73" value="目的地" style="ellipse;whiteSpace=wrap;html=1;strokeWidth=2;" parent="1" vertex="1">
          <mxGeometry x="180" y="640" width="40" height="40" as="geometry" />
        </mxCell>
        <mxCell id="xx_I0FoMBbV-bJ_i2G7W-7" style="edgeStyle=orthogonalEdgeStyle;rounded=1;orthogonalLoop=1;jettySize=auto;html=1;entryX=0.5;entryY=1;entryDx=0;entryDy=0;strokeWidth=2;endFill=0;endArrow=none;" edge="1" parent="1" source="rSL1p0TWv5nwJX9Y8UWE-75" target="rSL1p0TWv5nwJX9Y8UWE-3">
          <mxGeometry relative="1" as="geometry" />
        </mxCell>
        <mxCell id="rSL1p0TWv5nwJX9Y8UWE-75" value="出发时间" style="ellipse;whiteSpace=wrap;html=1;strokeWidth=2;" parent="1" vertex="1">
          <mxGeometry x="350" y="650" width="40" height="40" as="geometry" />
        </mxCell>
        <mxCell id="xx_I0FoMBbV-bJ_i2G7W-14" style="edgeStyle=orthogonalEdgeStyle;rounded=1;orthogonalLoop=1;jettySize=auto;html=1;entryX=0.5;entryY=1;entryDx=0;entryDy=0;strokeWidth=2;endFill=0;endArrow=none;" edge="1" parent="1" source="rSL1p0TWv5nwJX9Y8UWE-80" target="rSL1p0TWv5nwJX9Y8UWE-3">
          <mxGeometry relative="1" as="geometry" />
        </mxCell>
        <mxCell id="rSL1p0TWv5nwJX9Y8UWE-80" value="头等舱被预定座位数" style="ellipse;whiteSpace=wrap;html=1;strokeWidth=2;" parent="1" vertex="1">
          <mxGeometry x="410" y="650" width="40" height="40" as="geometry" />
        </mxCell>
        <mxCell id="xx_I0FoMBbV-bJ_i2G7W-10" style="edgeStyle=orthogonalEdgeStyle;rounded=1;orthogonalLoop=1;jettySize=auto;html=1;entryX=0;entryY=0.5;entryDx=0;entryDy=0;strokeWidth=2;endFill=0;endArrow=none;" edge="1" parent="1" source="xx_I0FoMBbV-bJ_i2G7W-8" target="xx_I0FoMBbV-bJ_i2G7W-9">
          <mxGeometry relative="1" as="geometry" />
        </mxCell>
        <mxCell id="xx_I0FoMBbV-bJ_i2G7W-8" value="航线" style="rounded=0;whiteSpace=wrap;html=1;strokeWidth=2;" vertex="1" parent="1">
          <mxGeometry x="100" y="530" width="120" height="60" as="geometry" />
        </mxCell>
        <mxCell id="xx_I0FoMBbV-bJ_i2G7W-11" style="edgeStyle=orthogonalEdgeStyle;rounded=1;orthogonalLoop=1;jettySize=auto;html=1;entryX=0;entryY=0.5;entryDx=0;entryDy=0;strokeWidth=2;endFill=0;endArrow=none;" edge="1" parent="1" source="xx_I0FoMBbV-bJ_i2G7W-9" target="rSL1p0TWv5nwJX9Y8UWE-3">
          <mxGeometry relative="1" as="geometry" />
        </mxCell>
        <mxCell id="xx_I0FoMBbV-bJ_i2G7W-9" value="选择" style="rhombus;whiteSpace=wrap;html=1;strokeWidth=2;" vertex="1" parent="1">
          <mxGeometry x="255" y="520" width="80" height="80" as="geometry" />
        </mxCell>
        <mxCell id="xx_I0FoMBbV-bJ_i2G7W-15" value="经济舱被预定座位数" style="ellipse;whiteSpace=wrap;html=1;strokeWidth=2;" vertex="1" parent="1">
          <mxGeometry x="470" y="650" width="40" height="40" as="geometry" />
        </mxCell>
        <mxCell id="xx_I0FoMBbV-bJ_i2G7W-18" value="飞机" style="rounded=0;whiteSpace=wrap;html=1;strokeWidth=2;" vertex="1" parent="1">
          <mxGeometry x="630" y="530" width="120" height="60" as="geometry" />
        </mxCell>
        <mxCell id="xx_I0FoMBbV-bJ_i2G7W-20" style="edgeStyle=orthogonalEdgeStyle;rounded=1;orthogonalLoop=1;jettySize=auto;html=1;entryX=0;entryY=0.5;entryDx=0;entryDy=0;strokeWidth=2;endFill=0;endArrow=none;" edge="1" parent="1" source="xx_I0FoMBbV-bJ_i2G7W-19" target="xx_I0FoMBbV-bJ_i2G7W-18">
          <mxGeometry relative="1" as="geometry" />
        </mxCell>
        <mxCell id="xx_I0FoMBbV-bJ_i2G7W-19" value="使用" style="rhombus;whiteSpace=wrap;html=1;strokeWidth=2;" vertex="1" parent="1">
          <mxGeometry x="520" y="520" width="80" height="80" as="geometry" />
        </mxCell>
        <mxCell id="xx_I0FoMBbV-bJ_i2G7W-22" value="n" style="text;html=1;strokeColor=none;fillColor=none;align=center;verticalAlign=middle;whiteSpace=wrap;rounded=0;" vertex="1" parent="1">
          <mxGeometry x="330" y="530" width="40" height="20" as="geometry" />
        </mxCell>
        <mxCell id="xx_I0FoMBbV-bJ_i2G7W-23" value="1" style="text;html=1;strokeColor=none;fillColor=none;align=center;verticalAlign=middle;whiteSpace=wrap;rounded=0;" vertex="1" parent="1">
          <mxGeometry x="220" y="530" width="40" height="20" as="geometry" />
        </mxCell>
        <mxCell id="xx_I0FoMBbV-bJ_i2G7W-27" style="edgeStyle=orthogonalEdgeStyle;rounded=1;orthogonalLoop=1;jettySize=auto;html=1;entryX=0.5;entryY=1;entryDx=0;entryDy=0;strokeWidth=2;endFill=0;endArrow=none;" edge="1" parent="1" source="xx_I0FoMBbV-bJ_i2G7W-24" target="xx_I0FoMBbV-bJ_i2G7W-18">
          <mxGeometry relative="1" as="geometry" />
        </mxCell>
        <mxCell id="xx_I0FoMBbV-bJ_i2G7W-24" value="头等舱座位数" style="ellipse;whiteSpace=wrap;html=1;strokeWidth=2;" vertex="1" parent="1">
          <mxGeometry x="620" y="640" width="40" height="40" as="geometry" />
        </mxCell>
        <mxCell id="xx_I0FoMBbV-bJ_i2G7W-28" style="edgeStyle=orthogonalEdgeStyle;rounded=1;orthogonalLoop=1;jettySize=auto;html=1;strokeWidth=2;endFill=0;endArrow=none;" edge="1" parent="1" source="xx_I0FoMBbV-bJ_i2G7W-25">
          <mxGeometry relative="1" as="geometry">
            <mxPoint x="690" y="590" as="targetPoint" />
          </mxGeometry>
        </mxCell>
        <mxCell id="xx_I0FoMBbV-bJ_i2G7W-25" value="经济舱座位数" style="ellipse;whiteSpace=wrap;html=1;strokeWidth=2;" vertex="1" parent="1">
          <mxGeometry x="670" y="640" width="40" height="40" as="geometry" />
        </mxCell>
        <mxCell id="xx_I0FoMBbV-bJ_i2G7W-30" style="edgeStyle=orthogonalEdgeStyle;rounded=1;orthogonalLoop=1;jettySize=auto;html=1;entryX=0.5;entryY=1;entryDx=0;entryDy=0;strokeWidth=2;endFill=0;endArrow=none;" edge="1" parent="1" source="xx_I0FoMBbV-bJ_i2G7W-26" target="xx_I0FoMBbV-bJ_i2G7W-18">
          <mxGeometry relative="1" as="geometry" />
        </mxCell>
        <mxCell id="xx_I0FoMBbV-bJ_i2G7W-26" value="型号" style="ellipse;whiteSpace=wrap;html=1;strokeWidth=2;" vertex="1" parent="1">
          <mxGeometry x="730" y="640" width="40" height="40" as="geometry" />
        </mxCell>
        <mxCell id="xx_I0FoMBbV-bJ_i2G7W-31" value="1" style="text;html=1;strokeColor=none;fillColor=none;align=center;verticalAlign=middle;whiteSpace=wrap;rounded=0;" vertex="1" parent="1">
          <mxGeometry x="590" y="530" width="40" height="20" as="geometry" />
        </mxCell>
        <mxCell id="xx_I0FoMBbV-bJ_i2G7W-32" value="n" style="text;html=1;strokeColor=none;fillColor=none;align=center;verticalAlign=middle;whiteSpace=wrap;rounded=0;" vertex="1" parent="1">
          <mxGeometry x="490" y="530" width="40" height="20" as="geometry" />
        </mxCell>
      </root>
    </mxGraphModel>
  </diagram>
</mxfile>
